<?xml version="1.0" standalone="no"?>
<!DOCTYPE svg PUBLIC "-//W3C//DTD SVG 20010904//EN"
 "http://www.w3.org/TR/2001/REC-SVG-20010904/DTD/svg10.dtd">
<svg version="1.0" xmlns="http://www.w3.org/2000/svg"
 width="260.000000pt" height="260.000000pt" viewBox="0 0 260.000000 260.000000"
 preserveAspectRatio="xMidYMid meet">
<metadata>
Created by potrace 1.14, written by Peter Selinger 2001-2017
</metadata>
<g transform="translate(0.000000,260.000000) scale(0.100000,-0.100000)"
fill="#000000" stroke="none">
<path d="M1180 2594 c-14 -2 -59 -9 -100 -15 -389 -57 -762 -336 -946 -709
-49 -99 -96 -243 -115 -350 -17 -97 -17 -343 0 -440 30 -169 109 -363 209
-515 26 -38 94 -118 152 -176 191 -193 412 -313 678 -366 119 -24 365 -24 484
0 401 80 732 331 918 694 47 91 102 257 121 363 17 97 17 344 0 440 -94 527
-508 951 -1031 1055 -74 15 -322 28 -370 19z m772 -573 c68 -22 181 -91 202
-123 9 -15 2 -27 -46 -75 l-57 -57 -28 22 c-16 13 -57 37 -93 55 -61 30 -72
32 -170 32 -92 0 -112 -3 -161 -26 -80 -38 -134 -90 -171 -168 -28 -59 -32
-76 -32 -156 -1 -78 3 -98 28 -152 52 -113 166 -195 290 -208 68 -8 170 7 222
32 l34 17 0 158 0 158 93 0 92 0 -2 -201 c-1 -119 -6 -206 -12 -213 -16 -19
-104 -65 -167 -86 -290 -100 -598 10 -721 258 l-36 72 -134 0 -133 0 0 -430 0
-430 -95 0 -95 0 0 430 0 430 -168 2 -167 3 -3 83 -3 82 391 0 390 0 0 33 c0
50 26 140 61 209 61 121 208 231 352 264 87 19 252 12 339 -15z"/>
</g>
</svg>
